<svg width="16" height="16" viewBox="0 0 16 16" fill="none" xmlns="http://www.w3.org/2000/svg">
<g clip-path="url(#clip0_26_243)">
<path fill-rule="evenodd" clip-rule="evenodd" d="M8.48466 0.315684L10.5381 4.67534C10.6136 4.84002 10.7662 4.95621 10.945 4.98513L15.5367 5.68423C15.7442 5.72448 15.9128 5.87563 15.9755 6.07759C16.0381 6.27954 15.9846 6.49958 15.8362 6.65021L12.5137 10.0437C12.3854 10.1767 12.3277 10.3627 12.3582 10.545L13.1426 15.3367C13.1854 15.5427 13.106 15.7549 12.9386 15.8824C12.7712 16.0098 12.5455 16.0298 12.3584 15.9337L8.2515 13.6713C8.09505 13.5846 7.90495 13.5846 7.7485 13.6713L3.64163 15.9337C3.45446 16.0298 3.22875 16.0098 3.06136 15.8824C2.89396 15.7549 2.81464 15.5427 2.85743 15.3367L3.64177 10.545C3.67229 10.3627 3.61462 10.1767 3.48633 10.0437L0.163807 6.65021C0.0154288 6.49958 -0.0380854 6.27955 0.0245385 6.0776C0.0871623 5.87565 0.255775 5.7245 0.463346 5.68425L5.05496 4.98513C5.23379 4.95622 5.38643 4.84002 5.4619 4.67534L7.51534 0.315684C7.60015 0.123787 7.7902 0 8 0C8.2098 0 8.39985 0.123787 8.48466 0.315684Z" fill="#F6AB27"/>
<path fill-rule="evenodd" clip-rule="evenodd" d="M10.945 4.98513L15.5366 5.68423C15.7442 5.72448 15.9128 5.87563 15.9754 6.07758C16.0381 6.27954 15.9845 6.49957 15.8361 6.6502L12.5136 10.0437C12.3853 10.1767 12.3277 10.3627 12.3582 10.545L13.1425 15.3367C13.1853 15.5427 13.106 15.7549 12.9386 15.8824C12.7712 16.0098 12.5455 16.0298 12.3583 15.9337L8.25146 13.6713C8.09501 13.5846 7.9049 13.5846 7.74845 13.6713L3.64158 15.9337C3.45442 16.0298 3.22871 16.0098 3.06131 15.8824C2.89392 15.7549 2.81459 15.5427 2.85738 15.3367C7.5 12.5 10 9 10.945 4.98513Z" fill="#E8E8E8"/>
<path fill-rule="evenodd" clip-rule="evenodd" d="M10.0382 3.61658C8.71381 4.32473 7.49086 5.20807 6.40234 6.24278C5.2422 7.35342 4.25803 8.63432 3.48372 10.0414L0.162366 6.65106C0.013995 6.50034 -0.0393752 6.28019 0.0235035 6.07825C0.0863821 5.87632 0.255302 5.72539 0.463012 5.68554L5.05339 4.98485C5.23198 4.95519 5.3846 4.8397 5.46167 4.67589L7.51406 0.314508C7.5998 0.123171 7.78992 3.05176e-05 7.99958 3.05176e-05C8.20925 3.05176e-05 8.39936 0.123171 8.4851 0.314508L10.0382 3.61658Z" fill="#F4CD1E"/>
</g>
<defs>
<clipPath id="clip0_26_243">
<rect width="16" height="16" fill="white"/>
</clipPath>
</defs>
</svg>
